<?xml version="1.0" standalone="no"?>
<!DOCTYPE svg PUBLIC "-//W3C//DTD SVG 20010904//EN"
 "http://www.w3.org/TR/2001/REC-SVG-20010904/DTD/svg10.dtd">
<svg version="1.0" xmlns="http://www.w3.org/2000/svg"
 width="458.000000pt" height="545.000000pt" viewBox="0 0 458.000000 545.000000"
 preserveAspectRatio="xMidYMid meet">

<g transform="translate(0.000000,545.000000) scale(0.100000,-0.100000)"
fill="#000000" stroke="none">
<path d="M2040 5356 c-50 -27 -115 -43 -137 -35 -12 4 -37 6 -55 3 -18 -2 -55
-6 -82 -8 -56 -5 -63 -10 -81 -62 -13 -38 -15 -39 -56 -36 -29 3 -48 11 -60
26 -29 36 -112 16 -114 -28 -1 -6 -5 -24 -10 -40 -6 -23 -4 -32 10 -43 14 -10
16 -16 8 -24 -17 -17 -60 -3 -66 21 -4 16 -9 18 -29 11 -47 -17 -75 -111 -32
-111 17 0 18 -12 2 -28 -9 -9 -8 -16 5 -30 13 -14 14 -21 5 -30 -8 -8 -17 -1
-33 31 -20 41 -22 42 -65 40 -27 -1 -49 -9 -56 -18 -26 -35 -74 5 -74 62 0 26
-3 29 -37 28 l-38 0 -1 -45 c-2 -61 -17 -93 -53 -120 -17 -12 -31 -30 -31 -40
0 -10 -4 -22 -10 -25 -14 -8 -13 -48 2 -63 8 -8 8 -15 -2 -27 -18 -22 -30 -18
-30 10 0 14 -9 34 -20 45 -11 11 -17 26 -14 35 9 21 -14 45 -42 45 -15 0 -30
10 -41 27 -10 15 -26 36 -35 45 -14 14 -16 23 -8 43 18 48 13 65 -20 65 -20 0
-33 -6 -37 -17 -8 -21 -43 -52 -59 -53 -17 0 -24 -26 -11 -39 14 -14 -7 -61
-28 -61 -9 0 -15 -9 -15 -25 0 -18 -5 -25 -20 -25 -11 0 -28 -9 -37 -19 -15
-19 -18 -19 -47 -3 -42 22 -55 23 -85 8 -41 -21 -127 -29 -151 -14 -18 11 -23
10 -31 -4 -5 -9 -23 -19 -39 -23 -43 -9 -46 -66 -6 -100 14 -11 27 -35 30 -55
3 -19 11 -39 18 -45 33 -26 37 -40 23 -80 -8 -24 -21 -41 -32 -44 -10 -2 -30
-12 -45 -22 -17 -12 -29 -16 -33 -9 -8 13 -55 2 -75 -17 -11 -12 -12 -17 -2
-20 6 -3 12 -11 12 -19 0 -8 7 -14 16 -14 12 0 15 -7 12 -25 -6 -29 30 -67 64
-70 18 -1 24 -9 29 -38 3 -22 2 -35 -4 -34 -6 1 -16 -8 -22 -20 -7 -13 -20
-32 -30 -43 -15 -17 -16 -24 -6 -46 7 -15 8 -32 3 -41 -11 -18 26 -93 45 -93
7 0 38 -16 69 -36 53 -34 59 -36 104 -27 44 9 49 8 57 -10 11 -25 -5 -65 -29
-73 -10 -3 -18 -12 -18 -20 0 -8 -4 -14 -10 -14 -19 0 -10 -40 13 -55 21 -13
30 -13 103 11 75 24 129 58 119 74 -3 4 1 13 9 19 8 7 17 22 20 35 3 14 16 26
30 30 15 4 34 22 47 45 28 50 100 87 150 76 84 -17 109 -26 109 -41 0 -12 7
-14 28 -9 22 4 33 0 52 -20 13 -14 28 -25 33 -25 5 0 26 -14 46 -31 76 -64 83
-69 92 -69 4 0 6 8 2 18 -5 13 0 12 20 -7 14 -12 30 -20 36 -17 15 10 79 -51
89 -87 6 -18 13 -65 16 -105 3 -42 12 -84 21 -98 49 -75 65 -118 65 -176 0
-32 -6 -67 -12 -78 -10 -15 -10 -22 0 -32 9 -9 12 -9 12 0 0 15 44 16 71 2 20
-11 27 -60 8 -60 -20 0 2 -19 30 -25 17 -4 43 -23 63 -47 18 -22 41 -49 51
-59 21 -23 23 -59 3 -59 -24 0 -30 -22 -10 -37 16 -12 20 -11 31 3 11 15 16
15 67 0 30 -9 67 -26 81 -39 24 -21 68 -92 81 -129 4 -10 16 -18 28 -18 11 0
34 -11 50 -25 16 -14 33 -25 38 -25 5 0 20 -24 34 -53 14 -32 34 -58 48 -65
25 -11 106 -106 106 -123 0 -5 9 -9 19 -9 11 0 23 -4 26 -10 3 -6 19 -10 35
-10 30 0 90 -57 90 -85 0 -19 24 -19 39 -1 23 27 75 28 121 2 39 -22 45 -23
55 -9 19 26 83 -11 111 -64 12 -23 31 -54 43 -69 12 -15 21 -41 21 -60 0 -19
5 -34 10 -34 6 0 10 5 10 10 0 6 7 10 15 10 8 0 15 -5 15 -12 0 -6 7 -4 18 5
23 21 34 21 53 -1 9 -9 25 -22 35 -28 18 -11 18 -13 -10 -43 -32 -34 -30 -49
4 -31 12 6 28 9 36 6 8 -3 24 -1 34 4 11 6 29 15 41 21 17 9 26 6 46 -13 36
-34 79 -124 66 -140 -6 -7 -13 -25 -17 -40 -5 -22 -3 -28 9 -28 9 0 18 -7 21
-15 4 -8 15 -15 26 -15 25 0 78 -37 78 -55 0 -7 14 -16 31 -20 24 -5 36 -2 53
14 12 12 30 21 39 21 19 0 74 -76 81 -111 19 -97 31 -133 58 -166 43 -55 50
-71 59 -138 14 -103 20 -122 50 -151 34 -33 38 -70 9 -106 -15 -19 -26 -24
-46 -20 -14 2 -29 1 -33 -4 -3 -5 -19 -18 -34 -28 l-29 -18 22 -23 c24 -25 24
-44 -2 -119 -10 -31 -21 -43 -50 -54 -35 -14 -36 -16 -33 -56 2 -22 4 -51 4
-63 1 -13 10 -32 21 -43 19 -19 20 -19 146 -11 12 1 29 37 40 86 10 45 61 110
99 128 56 27 66 51 56 137 -4 41 -5 84 -1 95 9 24 87 81 123 90 15 4 40 2 56
-3 33 -12 44 -4 54 37 4 15 0 29 -9 39 -10 10 -14 27 -11 46 2 17 -1 38 -6 48
-8 11 -8 27 0 52 9 29 9 36 -3 36 -8 0 -19 9 -26 20 -7 11 -20 20 -28 20 -9 0
-31 13 -50 30 -23 19 -46 29 -68 30 -51 0 -69 15 -77 60 -6 34 -3 48 18 78 19
29 22 43 15 62 -7 18 -4 30 12 52 11 15 25 40 31 55 20 55 72 130 101 147 27
17 31 17 64 1 27 -12 33 -20 25 -29 -8 -10 -1 -17 32 -31 23 -9 50 -21 59 -26
9 -4 42 -6 72 -3 59 6 106 -12 106 -40 0 -7 9 -21 20 -31 13 -11 18 -25 14
-37 -3 -10 -1 -18 5 -18 6 0 8 -6 5 -14 -7 -18 51 -75 84 -82 15 -3 34 -9 43
-14 23 -12 29 -3 29 41 0 21 9 57 21 79 l21 40 -20 43 c-19 41 -111 137 -131
137 -16 0 -51 33 -51 47 0 19 -41 53 -65 53 -11 0 -25 4 -30 9 -6 5 -37 18
-70 31 -33 12 -62 25 -65 29 -21 29 -141 103 -197 122 -172 56 -397 159 -413
189 -16 30 -12 68 8 74 10 4 36 22 57 40 31 28 37 38 31 60 -11 44 -46 59
-108 48 -139 -27 -300 -21 -332 11 -10 9 -24 17 -32 17 -31 0 -94 40 -94 60 0
12 -13 25 -34 35 -19 9 -52 35 -74 58 -22 23 -61 62 -86 86 -61 58 -99 127
-126 226 -24 90 -45 149 -87 245 -42 97 -53 112 -69 106 -21 -8 -49 8 -119 69
-84 72 -145 115 -165 115 -17 0 -93 74 -122 120 -23 35 -51 156 -44 185 3 13
2 27 -4 30 -13 8 -13 61 1 86 10 20 11 20 24 2 13 -17 15 -17 33 2 10 11 24
32 30 47 10 24 9 29 -11 40 -12 7 -25 11 -29 10 -5 -1 -8 7 -8 18 0 11 -4 20
-9 20 -5 0 -11 18 -15 41 -6 35 -9 39 -21 29 -13 -11 -15 -6 -15 28 0 23 5 44
10 47 6 4 8 10 5 15 -7 11 35 61 46 55 16 -11 9 -25 -12 -25 -17 0 -19 -3 -10
-13 6 -8 10 -16 8 -18 -1 -2 3 1 8 7 6 6 21 14 35 18 31 10 153 68 160 77 3 4
19 8 35 10 40 4 61 19 43 31 -10 6 -9 12 6 23 27 20 33 19 58 -10 45 -52 82
-26 103 75 8 41 15 77 15 79 0 2 -11 0 -25 -3 -34 -9 -32 10 5 54 34 39 37 50
15 50 -8 0 -23 4 -33 9 -9 5 -25 12 -34 15 -10 3 -18 10 -18 16 0 16 62 71 93
83 9 3 17 15 17 25 0 22 -56 44 -120 48 -69 3 -139 14 -200 29 -132 33 -137
35 -148 60 -6 14 -16 25 -21 25 -5 0 -8 8 -7 17 0 10 -9 22 -21 28 -30 13 -39
52 -16 77 15 17 15 21 3 28 -19 12 -20 12 -50 -4z m160 -806 c0 -5 -7 -10 -15
-10 -8 0 -15 5 -15 10 0 6 7 10 15 10 8 0 15 -4 15 -10z m-14 -307 c-10 -10
-19 5 -10 18 6 11 8 11 12 0 2 -7 1 -15 -2 -18z m-16 -23 c0 -5 -2 -10 -4 -10
-3 0 -8 5 -11 10 -3 6 -1 10 4 10 6 0 11 -4 11 -10z"/>
<path d="M1176 3324 c-4 -9 -4 -19 -1 -22 2 -3 7 3 11 12 4 9 4 19 1 22 -2 3
-7 -3 -11 -12z"/>
<path d="M1391 3206 c-7 -8 -21 -12 -31 -9 -11 3 -20 0 -20 -6 0 -5 -7 -8 -15
-5 -24 9 -45 -3 -38 -22 5 -13 15 -15 49 -10 24 3 46 1 49 -4 12 -20 20 -9 23
30 3 44 0 47 -17 26z"/>
<path d="M1266 3085 c-3 -8 -1 -15 4 -15 6 0 10 7 10 15 0 8 -2 15 -4 15 -2 0
-6 -7 -10 -15z"/>
<path d="M1570 2955 c0 -8 5 -15 10 -15 6 0 10 7 10 15 0 8 -4 15 -10 15 -5 0
-10 -7 -10 -15z"/>
<path d="M970 2419 c0 -5 5 -7 10 -4 6 3 10 8 10 11 0 2 -4 4 -10 4 -5 0 -10
-5 -10 -11z"/>
<path d="M994 2392 c-6 -21 -35 -24 -42 -4 -2 7 -16 12 -31 12 -25 0 -28 -3
-24 -25 4 -20 0 -25 -23 -31 -16 -4 -49 -29 -74 -56 -25 -26 -55 -50 -67 -52
-12 -3 -35 -14 -51 -26 -22 -17 -36 -20 -70 -14 -55 9 -76 33 -68 79 4 21 13
35 21 35 8 0 15 7 15 15 0 49 -53 -26 -55 -79 -1 -23 -7 -54 -14 -70 -9 -21
-9 -32 0 -42 9 -11 8 -19 -6 -34 -16 -18 -14 -25 8 -21 4 0 7 -4 7 -9 0 -7 6
-7 18 -1 16 8 21 3 36 -40 10 -27 16 -56 12 -64 -3 -8 3 -20 13 -27 14 -10 17
-25 16 -72 -2 -53 -5 -61 -26 -69 -13 -5 -19 -11 -13 -13 6 -3 9 -15 7 -28 -3
-14 0 -32 6 -43 6 -10 11 -12 11 -5 0 20 28 14 35 -8 3 -10 -1 -32 -9 -47 -8
-15 -15 -22 -16 -15 0 6 -5 12 -10 12 -6 0 -9 -19 -6 -47 3 -31 -1 -57 -12
-78 -20 -39 -23 -65 -10 -92 9 -18 8 -27 -6 -42 -17 -19 -17 -21 5 -50 12 -17
20 -34 16 -38 -4 -3 -7 -1 -7 5 0 7 -10 12 -21 12 -19 0 -21 -4 -15 -32 9 -47
23 -56 36 -24 11 29 44 33 46 6 0 -8 3 -23 7 -32 4 -10 9 -25 12 -35 5 -14 7
-14 20 3 13 18 15 18 44 1 l30 -17 40 38 c35 33 40 44 35 68 -3 18 0 37 9 49
13 16 17 17 31 6 12 -10 16 -11 16 -1 0 18 58 5 85 -19 54 -49 72 -33 90 82 3
15 9 37 15 48 6 10 9 23 6 27 -3 5 2 55 10 113 9 57 16 111 16 119 0 8 4 27
10 43 9 22 7 31 -6 46 -9 10 -19 34 -22 52 -5 29 -1 40 30 74 46 49 52 74 31
115 -9 17 -14 34 -12 37 3 2 -1 20 -9 38 -7 19 -11 41 -8 49 3 9 1 16 -4 16
-6 0 -14 9 -17 20 -4 11 -11 18 -16 15 -15 -10 -10 12 6 29 14 14 13 16 -10
22 -27 7 -31 14 -14 31 15 15 1 36 -21 30 -11 -3 -21 1 -24 9 -3 8 1 14 9 14
19 0 19 17 -1 37 -14 14 -16 14 -20 -5z"/>
<path d="M2724 2119 c-8 -14 11 -33 25 -25 6 4 11 11 11 16 0 13 -29 20 -36 9z"/>
<path d="M2860 2019 c0 -5 5 -7 10 -4 6 3 10 8 10 11 0 2 -4 4 -10 4 -5 0 -10
-5 -10 -11z"/>
<path d="M503 1353 c-10 -3 -10 -10 -2 -25 12 -22 21 -18 26 12 3 20 -2 23
-24 13z"/>
<path d="M3270 1119 c0 -5 5 -7 10 -4 6 3 10 8 10 11 0 2 -4 4 -10 4 -5 0 -10
-5 -10 -11z"/>
<path d="M2455 1070 c-3 -5 -2 -10 4 -10 5 0 13 5 16 10 3 6 2 10 -4 10 -5 0
-13 -4 -16 -10z"/>
<path d="M3010 1011 c0 -5 5 -13 10 -16 6 -3 10 -2 10 4 0 5 -4 13 -10 16 -5
3 -10 2 -10 -4z"/>
<path d="M3118 998 c9 -9 15 -9 24 0 9 9 7 12 -12 12 -19 0 -21 -3 -12 -12z"/>
<path d="M3156 971 c-3 -5 0 -14 8 -20 10 -9 15 -8 19 3 9 22 -15 37 -27 17z"/>
<path d="M3180 915 c7 -9 15 -13 17 -11 7 7 -7 26 -19 26 -6 0 -6 -6 2 -15z"/>
<path d="M3380 850 c-14 -10 -37 -21 -52 -24 -22 -5 -28 -3 -29 11 -1 12 -3 9
-8 -7 -4 -14 -18 -31 -32 -39 -22 -12 -30 -12 -57 2 -38 18 -93 8 -129 -25
-27 -25 -148 -59 -188 -52 -71 11 -102 11 -127 -2 -52 -27 -130 -7 -141 36 -4
16 -10 19 -36 14 -26 -6 -31 -4 -31 14 0 30 -24 46 -50 32 -11 -6 -28 -10 -38
-8 -24 4 -42 -10 -42 -32 0 -12 -13 -26 -31 -36 -30 -15 -32 -15 -55 7 -13 12
-24 28 -24 35 0 6 -7 17 -15 24 -12 10 -15 9 -15 -7 0 -11 -12 -25 -27 -33
-42 -21 -63 -41 -63 -60 0 -10 -7 -23 -15 -30 -16 -13 -21 -35 -6 -26 10 7 9
-20 -1 -30 -4 -3 -3 -14 2 -23 5 -9 11 -24 14 -34 3 -9 16 -21 29 -26 14 -5
27 -17 30 -25 5 -12 21 -16 71 -16 55 0 67 -3 76 -20 7 -13 21 -20 39 -20 18
0 40 -12 62 -32 48 -45 95 -78 113 -78 8 0 31 -16 52 -35 20 -19 41 -35 45
-35 20 0 25 -2 40 -16 12 -10 28 -13 56 -8 76 12 150 -39 188 -130 12 -28 23
-37 55 -46 22 -6 40 -15 40 -19 0 -12 45 -19 62 -10 13 7 68 -6 96 -24 22 -15
31 3 25 52 -5 47 -4 51 32 88 21 21 42 37 49 35 6 -1 4 3 -5 10 -9 7 -14 18
-12 25 3 7 -8 25 -23 39 -24 25 -25 29 -10 39 23 17 20 25 -14 36 -22 8 -30
18 -31 37 -4 61 0 86 14 94 9 4 18 30 22 60 8 59 23 91 77 164 20 27 44 70 54
94 9 25 23 50 31 56 11 9 9 13 -9 18 -30 8 -29 8 -58 -14z"/>
<path d="M2005 700 c3 -5 8 -10 11 -10 2 0 4 5 4 10 0 6 -5 10 -11 10 -5 0 -7
-4 -4 -10z"/>
<path d="M2100 681 c0 -5 9 -11 20 -14 24 -6 27 8 4 17 -21 8 -24 8 -24 -3z"/>
<path d="M1950 113 c1 -14 27 -43 38 -43 19 0 23 18 6 34 -16 16 -44 22 -44 9z"/>
</g>
</svg>
