<?xml version="1.0" standalone="no"?>
<!DOCTYPE svg PUBLIC "-//W3C//DTD SVG 20010904//EN"
 "http://www.w3.org/TR/2001/REC-SVG-20010904/DTD/svg10.dtd">
<svg version="1.0" xmlns="http://www.w3.org/2000/svg"
 width="566.000000pt" height="440.000000pt" viewBox="0 0 566.000000 440.000000"
 preserveAspectRatio="xMidYMid meet">

<g transform="translate(0.000000,440.000000) scale(0.100000,-0.100000)"
fill="#000000" stroke="none">
<path d="M2635 4250 c-4 -6 -17 -10 -30 -10 -13 0 -25 -5 -27 -11 -2 -7 -36
-11 -88 -11 -104 0 -126 -8 -135 -47 -5 -25 -12 -31 -33 -31 -15 0 -37 9 -50
18 -37 28 -80 17 -97 -24 -14 -35 -11 -64 7 -64 5 0 6 -4 3 -10 -11 -17 -37
-11 -42 10 -6 24 -26 26 -47 5 -22 -23 -28 -52 -16 -75 7 -12 9 -24 6 -27 -3
-4 -1 -12 6 -20 7 -9 8 -17 1 -24 -6 -6 -14 3 -23 26 -16 40 -34 44 -86 19
-33 -16 -36 -16 -49 2 -8 11 -15 29 -15 42 0 18 -6 22 -30 22 -29 0 -30 -2
-30 -46 0 -37 -5 -50 -29 -72 -32 -31 -56 -91 -42 -105 11 -11 3 -37 -10 -37
-5 0 -9 8 -9 19 0 10 -7 24 -16 32 -8 7 -13 21 -10 31 3 14 -3 22 -22 31 -15
6 -38 23 -52 37 -21 21 -25 34 -22 68 3 37 1 42 -18 42 -13 0 -24 -8 -27 -20
-3 -11 -8 -20 -12 -20 -3 0 -17 -9 -31 -19 -19 -15 -22 -22 -12 -34 10 -11 8
-18 -8 -32 -11 -10 -20 -24 -20 -32 0 -7 -9 -13 -20 -13 -10 0 -23 -8 -29 -17
-9 -17 -11 -17 -46 0 -34 16 -39 16 -61 2 -14 -9 -30 -15 -37 -13 -6 1 -22 -2
-35 -6 -15 -5 -29 -3 -39 6 -13 10 -17 10 -20 1 -3 -7 -11 -13 -18 -13 -8 0
-21 -7 -30 -16 -17 -17 -12 -54 10 -66 7 -4 16 -20 20 -35 3 -16 15 -37 25
-48 22 -25 17 -85 -9 -85 -9 0 -25 -7 -35 -15 -10 -8 -23 -12 -28 -9 -5 3 -20
3 -34 0 -27 -7 -34 -43 -9 -52 8 -4 15 -16 15 -29 0 -25 15 -41 44 -46 11 -2
23 -16 27 -32 4 -16 3 -25 -2 -21 -5 3 -13 -6 -19 -20 -5 -14 -14 -26 -20 -26
-13 0 -10 -100 4 -123 6 -10 25 -25 41 -33 17 -8 41 -21 55 -29 16 -9 38 -12
61 -9 49 8 55 -13 18 -64 -34 -46 -30 -72 11 -72 67 0 145 45 166 96 7 18 22
35 32 38 10 3 26 20 35 36 27 45 78 63 143 50 29 -6 55 -17 58 -25 3 -8 13
-11 24 -8 10 2 26 -3 35 -11 8 -9 18 -16 21 -16 6 0 23 -13 84 -65 28 -24 34
-26 28 -11 -6 19 -6 19 12 3 10 -9 25 -17 33 -17 42 -1 79 -74 79 -154 0 -29
4 -56 9 -61 5 -6 21 -32 36 -59 27 -48 29 -84 10 -144 -7 -21 -5 -22 18 -17
14 4 35 2 46 -5 17 -9 19 -14 11 -31 -10 -17 -7 -21 22 -34 18 -7 44 -30 57
-49 13 -20 27 -36 32 -36 5 0 9 -9 9 -21 0 -15 -5 -19 -15 -15 -10 4 -15 -1
-15 -14 0 -20 26 -28 32 -10 3 10 67 -6 106 -28 12 -7 33 -35 47 -62 14 -28
31 -50 38 -50 6 0 25 -11 41 -25 16 -14 33 -25 37 -25 4 0 13 -15 19 -34 6
-19 23 -42 38 -52 35 -23 44 -33 66 -69 13 -23 31 -34 69 -45 48 -14 64 -29
80 -75 2 -6 9 -6 18 1 26 21 75 26 92 10 18 -19 39 -20 54 -5 17 17 68 -15 84
-53 7 -18 19 -39 27 -47 7 -7 16 -26 19 -42 3 -16 10 -32 16 -36 5 -3 7 -1 4
4 -12 20 67 13 92 -8 l24 -20 -22 -22 c-26 -28 -27 -40 -3 -28 9 5 39 14 66
20 47 11 51 10 71 -11 25 -27 49 -89 38 -97 -15 -11 -13 -51 2 -51 8 0 15 -4
15 -10 0 -5 7 -10 16 -10 8 0 32 -16 52 -35 36 -34 62 -45 62 -25 0 5 12 13
26 16 37 9 62 -23 80 -107 9 -39 27 -82 39 -97 32 -39 45 -67 45 -99 0 -37 23
-99 44 -125 20 -23 15 -87 -7 -89 -75 -7 -112 -34 -81 -59 31 -27 0 -115 -47
-132 -22 -8 -28 -15 -24 -27 4 -9 8 -33 10 -54 1 -21 5 -41 9 -44 8 -8 96 -13
118 -7 11 3 20 20 24 42 7 39 52 111 69 112 6 0 20 9 33 20 20 17 23 27 21 96
-2 74 -1 79 27 101 36 29 82 42 111 32 19 -7 25 -4 38 20 13 26 13 30 -1 42
-8 7 -14 22 -13 33 1 12 -2 29 -6 39 -4 10 -3 28 3 41 9 20 5 25 -38 49 -26
15 -53 33 -60 42 -7 8 -24 15 -39 15 -36 0 -47 10 -55 45 -4 21 0 39 13 59 14
21 17 35 11 47 -7 12 -4 24 10 41 10 14 22 36 25 51 9 35 72 107 95 107 29 0
50 -11 50 -27 0 -21 85 -56 119 -48 36 8 81 -3 81 -20 0 -6 9 -20 20 -30 11
-10 19 -23 18 -29 -9 -44 25 -78 100 -101 20 -6 22 -3 22 30 0 20 7 49 15 64
13 26 13 33 -2 62 -21 45 -50 76 -95 105 -20 13 -39 31 -42 41 -4 11 -34 30
-73 47 -84 34 -122 54 -148 76 -37 31 -70 47 -148 74 -43 15 -93 35 -111 45
-18 10 -47 22 -64 26 -18 3 -32 10 -32 14 0 3 -13 12 -30 18 -35 13 -57 58
-39 79 6 8 15 14 20 14 4 0 20 11 34 24 19 18 25 31 20 45 -8 26 -40 44 -64
36 -10 -3 -65 -7 -121 -9 -101 -4 -105 -4 -177 30 -41 20 -73 41 -73 49 0 8
-5 15 -11 15 -10 0 -72 55 -146 130 -37 37 -73 102 -73 131 0 10 -4 21 -10 24
-5 3 -10 15 -10 25 0 21 -55 168 -80 214 -9 16 -29 34 -46 40 -16 6 -64 39
-107 74 -43 34 -84 62 -92 62 -20 0 -95 80 -111 117 -8 17 -16 53 -18 80 -2
26 -7 56 -11 66 -4 9 -4 29 -1 43 6 21 9 24 21 14 21 -17 49 12 40 42 -5 18
-4 20 4 8 9 -12 11 -11 11 8 0 20 -11 27 -35 22 -5 -1 -7 2 -2 6 4 4 1 14 -7
23 -15 17 -16 19 -16 54 0 18 -2 19 -10 7 -7 -11 -10 -4 -10 25 0 40 18 88 21
55 1 -8 1 -22 0 -30 0 -8 4 -5 11 8 6 12 17 22 24 22 7 0 41 13 76 30 35 16
77 34 92 40 19 7 26 15 22 25 -4 12 3 14 37 13 23 -1 36 -3 29 -6 -19 -6 -14
-22 7 -22 24 0 41 21 50 62 5 18 11 43 15 56 6 18 4 22 -13 22 -27 0 -27 21
-1 38 31 19 24 39 -15 46 -42 8 -47 36 -10 56 14 7 25 17 25 22 0 4 7 8 15 8
8 0 15 8 15 19 0 19 -58 40 -110 40 -24 0 -59 6 -175 30 -48 11 -95 48 -95 77
0 7 -9 14 -20 17 -20 5 -29 47 -10 47 6 0 10 6 10 14 0 17 -27 29 -35 16z
m115 -614 c0 -3 -4 -8 -10 -11 -5 -3 -10 -1 -10 4 0 6 5 11 10 11 6 0 10 -2
10 -4z m-35 -15 c3 -5 1 -12 -5 -16 -5 -3 -10 1 -10 9 0 18 6 21 15 7z"/>
<path d="M1961 2684 c0 -11 3 -14 6 -6 3 7 2 16 -1 19 -3 4 -6 -2 -5 -13z"/>
<path d="M2123 2594 c-5 -13 -7 -13 -14 -2 -6 8 -12 9 -16 3 -5 -5 -16 -10
-25 -10 -39 0 -20 -20 23 -25 44 -5 45 -5 47 22 3 31 -5 37 -15 12z"/>
<path d="M2265 2411 c-3 -5 -1 -12 5 -16 5 -3 10 1 10 9 0 18 -6 21 -15 7z"/>
<path d="M2090 2399 c0 -5 5 -7 10 -4 6 3 10 8 10 11 0 2 -4 4 -10 4 -5 0 -10
-5 -10 -11z"/>
<path d="M1800 1983 c-1 -24 -2 -25 -11 -11 -12 21 -35 14 -42 -13 -3 -11 -14
-19 -26 -19 -12 0 -21 -4 -21 -10 0 -17 -68 -80 -86 -80 -10 0 -26 -7 -36 -17
-15 -14 -24 -14 -58 -4 -29 9 -40 17 -40 31 0 28 -18 25 -19 -2 -3 -61 -9 -99
-15 -105 -12 -12 -6 -22 11 -16 11 4 14 3 9 -5 -5 -8 -2 -10 8 -6 17 7 49 -57
40 -80 -3 -8 -1 -17 5 -21 6 -3 11 -28 11 -56 0 -40 -3 -49 -17 -49 -14 0 -15
-2 -4 -9 11 -7 11 -9 0 -13 -20 -7 -2 -38 21 -38 17 0 21 -5 18 -27 -2 -16 -8
-27 -15 -25 -9 1 -13 -13 -13 -47 0 -29 -5 -51 -12 -53 -6 -2 -11 -24 -11 -51
1 -26 -3 -47 -8 -47 -15 0 -10 -15 11 -38 23 -24 27 -40 7 -23 -17 14 -27 4
-27 -25 0 -30 17 -40 25 -14 9 30 31 24 41 -11 8 -27 14 -31 49 -34 55 -4 95
29 95 79 0 36 13 55 25 36 4 -7 11 -8 18 -2 12 10 28 5 77 -23 36 -21 45 -6
63 105 32 190 39 262 28 273 -16 16 -13 73 5 88 14 11 44 61 44 73 0 2 -6 11
-14 19 -8 7 -16 33 -17 58 -3 28 -12 51 -25 64 -20 21 -22 51 -2 39 7 -4 8 -2
4 4 -4 7 -13 12 -20 12 -9 0 -12 9 -8 25 3 20 0 25 -17 25 -13 0 -21 6 -21 18
0 15 2 15 11 2 8 -12 9 -11 7 5 -2 11 -11 19 -20 19 -10 -1 -14 4 -11 12 3 8
0 14 -6 14 -6 0 -11 -12 -11 -27z"/>
<path d="M1485 1931 c3 -5 1 -12 -5 -16 -5 -3 -10 -12 -10 -18 0 -7 5 -4 11 6
6 9 14 15 20 12 5 -4 9 1 9 9 0 9 -7 16 -16 16 -8 0 -13 -4 -9 -9z"/>
<path d="M2870 1830 c0 -5 5 -10 10 -10 6 0 10 5 10 10 0 6 -4 10 -10 10 -5 0
-10 -4 -10 -10z"/>
<path d="M3145 1760 c3 -5 13 -10 21 -10 8 0 14 5 14 10 0 6 -9 10 -21 10 -11
0 -17 -4 -14 -10z"/>
<path d="M3250 1689 c0 -5 5 -7 10 -4 6 3 10 8 10 11 0 2 -4 4 -10 4 -5 0 -10
-5 -10 -11z"/>
<path d="M1447 1184 c-8 -8 3 -34 14 -34 5 0 9 9 9 20 0 19 -11 26 -23 14z"/>
<path d="M3455 910 c3 -5 8 -10 11 -10 2 0 4 5 4 10 0 6 -5 10 -11 10 -5 0 -7
-4 -4 -10z"/>
<path d="M3480 885 c0 -8 5 -15 10 -15 6 0 10 7 10 15 0 8 -4 15 -10 15 -5 0
-10 -7 -10 -15z"/>
<path d="M3640 790 c-44 -24 -47 -24 -53 -2 -4 13 -5 12 -6 -5 -2 -38 -61 -52
-82 -20 -4 5 -14 5 -25 -1 -11 -6 -26 -13 -34 -16 -8 -4 -31 -16 -50 -28 -29
-17 -50 -21 -119 -20 -45 0 -95 -4 -108 -9 -35 -13 -89 5 -96 33 -5 18 -9 19
-21 9 -12 -10 -17 -7 -31 18 -14 28 -18 30 -38 19 -12 -7 -30 -11 -39 -9 -12
1 -18 -4 -18 -19 0 -12 -10 -25 -26 -32 -23 -11 -29 -10 -44 10 -10 12 -20 28
-23 35 -3 8 -10 5 -23 -9 -11 -11 -27 -23 -37 -27 -9 -4 -20 -15 -23 -24 -3
-10 -10 -26 -15 -35 -12 -24 -11 -31 4 -22 9 6 9 4 -1 -8 -32 -40 38 -108 112
-108 30 0 46 -5 50 -15 3 -8 16 -15 30 -15 15 0 34 -12 49 -30 14 -17 29 -30
32 -30 4 0 13 -7 21 -15 9 -8 24 -15 34 -15 10 0 25 -9 32 -19 8 -11 26 -23
41 -26 15 -4 27 -11 27 -16 0 -5 25 -9 55 -9 51 0 58 -3 95 -40 22 -22 40 -47
40 -55 0 -20 98 -67 122 -59 10 3 23 2 30 -3 7 -4 18 -8 23 -9 6 -1 17 -3 25
-5 11 -3 14 7 15 43 0 35 7 53 24 72 13 14 27 23 32 21 4 -3 5 4 2 15 -3 11
-9 20 -14 20 -5 0 -9 7 -9 16 0 8 -4 12 -10 9 -5 -3 -10 0 -10 9 0 8 5 16 12
18 17 6 0 28 -23 28 -16 0 -19 7 -19 44 0 24 5 46 11 48 5 2 13 24 16 48 4 27
21 66 42 99 58 87 69 107 73 131 4 31 -10 33 -52 10z"/>
<path d="M2670 660 c0 -5 7 -10 15 -10 8 0 15 5 15 10 0 6 -7 10 -15 10 -8 0
-15 -4 -15 -10z"/>
<path d="M2560 232 c0 -5 6 -17 14 -28 14 -18 15 -18 22 0 4 11 2 21 -7 27
-18 11 -29 11 -29 1z"/>
<path d="M4416 127 c-12 -25 1 -67 22 -67 11 0 13 3 5 8 -6 4 -13 23 -15 42
-3 27 -6 31 -12 17z"/>
<path d="M4162 108 c7 -15 15 -23 17 -17 2 6 -4 18 -13 27 -15 15 -15 15 -4
-10z"/>
<path d="M4216 115 c4 -8 8 -15 10 -15 2 0 4 7 4 15 0 8 -4 15 -10 15 -5 0 -7
-7 -4 -15z"/>
<path d="M4286 112 c-9 -26 8 -53 33 -51 13 1 13 2 -1 6 -24 6 -23 23 2 23 11
0 20 4 20 9 0 5 -9 7 -19 4 -13 -3 -20 1 -23 14 -4 16 -5 15 -12 -5z"/>
<path d="M4465 119 c-10 -15 3 -59 18 -59 29 0 51 50 28 65 -6 3 -9 -7 -8 -22
1 -19 -3 -28 -13 -28 -10 0 -15 10 -15 28 1 30 -1 32 -10 16z"/>
<path d="M4530 95 c0 -45 17 -45 22 0 3 24 0 35 -9 35 -8 0 -13 -13 -13 -35z"/>
<path d="M4580 116 c0 -8 9 -18 20 -21 11 -3 20 -11 20 -17 0 -6 -9 -8 -20 -5
-11 3 -20 1 -20 -4 0 -13 38 -11 46 3 4 6 -2 17 -12 25 -10 8 -18 19 -16 24 1
5 -2 9 -8 9 -5 0 -10 -6 -10 -14z"/>
<path d="M4685 119 c-11 -17 4 -59 22 -59 15 0 15 2 -2 14 -12 8 -16 20 -12
35 6 23 2 27 -8 10z"/>
<path d="M4744 115 c-3 -8 -4 -20 -2 -27 3 -7 7 -1 10 15 6 29 1 36 -8 12z"/>
<path d="M4850 95 c0 -45 7 -45 12 0 2 19 0 35 -4 35 -4 0 -8 -16 -8 -35z"/>
<path d="M4897 98 c8 -46 13 -48 13 -5 0 21 -4 37 -10 37 -5 0 -7 -14 -3 -32z"/>
<path d="M4351 103 c-2 -25 12 -43 33 -42 20 0 20 1 2 8 -11 4 -23 16 -27 27
-4 10 -8 14 -8 7z"/>
<path d="M4790 96 c0 -9 -10 -21 -22 -26 l-23 -9 22 0 c21 -1 42 33 29 46 -3
4 -6 -1 -6 -11z"/>
<path d="M4932 90 c-17 -28 -16 -30 16 -29 16 1 20 3 10 6 -21 5 -23 14 -6 31
7 7 8 12 2 12 -5 0 -15 -9 -22 -20z"/>
<path d="M4241 91 c-8 -5 -10 -14 -6 -21 6 -9 10 -8 17 4 12 21 7 28 -11 17z"/>
<path d="M4118 68 c6 -6 18 -8 28 -6 14 3 12 5 -9 10 -19 3 -25 2 -19 -4z"/>
</g>
</svg>
